<svg xmlns="http://www.w3.org/2000/svg"  viewBox="0 0 64 64" width="64px" height="64px" clip-rule="evenodd"><linearGradient id="dCmFgZwG-sAYzfGMoEBGPa" x1="18.23" x2="18.23" y1="20" y2="48.94" gradientUnits="userSpaceOnUse"><stop offset="0" stop-color="#8ab4ff"/><stop offset=".699" stop-color="#e492ff"/></linearGradient><path fill="url(#dCmFgZwG-sAYzfGMoEBGPa)" fill-rule="evenodd" d="M23.44,20v28.94C17.26,45.82,13.02,39.4,13.02,32 c0-4.55,1.6-8.73,4.27-12H23.44z" clip-rule="evenodd"/><linearGradient id="dCmFgZwG-sAYzfGMoEBGPb" x1="45.305" x2="45.305" y1="19.92" y2="49.4" gradientUnits="userSpaceOnUse"><stop offset="0" stop-color="#8ab4ff"/><stop offset=".699" stop-color="#e492ff"/></linearGradient><path fill="url(#dCmFgZwG-sAYzfGMoEBGPb)" fill-rule="evenodd" d="M51,32c0,7.78-4.68,14.47-11.38,17.4L39.61,20H46c0.23,0,0.46-0.03,0.67-0.08C49.38,23.2,51,27.42,51,32z" clip-rule="evenodd"/><linearGradient id="dCmFgZwG-sAYzfGMoEBGPc" x1="272.712" x2="304.601" y1="103.172" y2="141.791" gradientTransform="rotate(39.547 260.074 -295.048)" gradientUnits="userSpaceOnUse"><stop offset="0" stop-color="#1A6DFF"/><stop offset=".695" stop-color="#C822FF"/></linearGradient><path fill="url(#dCmFgZwG-sAYzfGMoEBGPc)" d="M11.55,26.64 c0.63-2.44,1.67-4.67,3.02-6.64H13c-0.17,0-0.35-0.01-0.51-0.05c-1.16,1.9-2.06,3.99-2.65,6.25c-2.31,8.91,0.96,17.99,7.63,23.5 c1.76,1.45,3.77,2.66,5.97,3.54v-1.91C14.15,47.2,8.91,36.81,11.55,26.64z"/><g><linearGradient id="dCmFgZwG-sAYzfGMoEBGPd" x1="32.285" x2="32.285" y1="11.995" y2="54.33" gradientUnits="userSpaceOnUse"><stop offset="0" stop-color="#8ab4ff"/><stop offset=".699" stop-color="#e492ff"/></linearGradient><path fill="url(#dCmFgZwG-sAYzfGMoEBGPd)" d="M45.57,12l-0.6,0.96L44.33,14h-7.72 c-0.8,0-1.55,0.31-2.12,0.88c-0.56,0.56-0.88,1.33-0.88,2.12l0.01,34.43c0,0.57,0.17,1.15,0.49,1.63c0.05,0.09,0.11,0.18,0.18,0.26 l0.82,1.01h-5.67V17c0-1.65-1.35-3-3-3H19l1.411-2C20.668,11.989,45.57,12,45.57,12z"/><linearGradient id="dCmFgZwG-sAYzfGMoEBGPe" x1="31.985" x2="31.985" y1="8" y2="58.33" gradientUnits="userSpaceOnUse"><stop offset="0" stop-color="#1A6DFF"/><stop offset=".695" stop-color="#C822FF"/></linearGradient><path fill="url(#dCmFgZwG-sAYzfGMoEBGPe)" d="M51.84,8.51C51.67,8.2,51.33,8,50.97,8H19 c-0.31,0-0.61,0.15-0.8,0.4l-6,8c-0.23,0.3-0.26,0.71-0.09,1.05C12.28,17.79,12.62,18,13,18h12.44v39.33c0,0.55,0.44,1,1,1h15 c0.39,0,0.74-0.22,0.9-0.57c0.17-0.35,0.12-0.77-0.13-1.06l-2.51-3.08l-1.2-1.47l-0.88-1.08L37.61,18H46 c0.35,0,0.67-0.18,0.85-0.47l0.29-0.47l0.96-1.54l3.72-5.99C52.01,9.22,52.02,8.83,51.84,8.51z M46.58,14.16l-0.94,1.52L45.44,16 h-8.83c-0.26,0-0.52,0.11-0.71,0.29c-0.18,0.19-0.29,0.45-0.29,0.71l0.01,34.43c0,0.23,0.08,0.45,0.22,0.63l0.54,0.66l1.24,1.52 l1.71,2.09H27.44V17c0-0.55-0.45-1-1-1H15l4.5-6h29.67L46.58,14.16z"/><linearGradient id="dCmFgZwG-sAYzfGMoEBGPf" x1="47.758" x2="47.758" y1="13.957" y2="73.958" gradientUnits="userSpaceOnUse"><stop offset="0" stop-color="#1A6DFF"/><stop offset=".695" stop-color="#C822FF"/></linearGradient><path fill="url(#dCmFgZwG-sAYzfGMoEBGPf)" d="M54.29,37.73 c-1.8,6.94-6.61,12.32-12.66,15.09l-1.15-1.41c5.79-2.51,10.4-7.56,12.1-14.12c1.43-5.48,0.63-11.19-2.24-16.07 c-0.54-0.92-1.15-1.8-1.81-2.61c-0.04-0.05-0.08-0.1-0.13-0.15l0.95-1.61c0.06,0.06,0.11,0.13,0.16,0.19 c0.88,1.02,1.66,2.11,2.35,3.29C54.97,25.61,55.83,31.8,54.29,37.73z"/></g></svg>